Coordinates
version=1
nRows=6
nColumns=63
inDegrees=yes

Units are S.I. units (second, meters, Newtons, ...)
If the header above contains a line with 'inDegrees', this indicates whether rotational values are in degrees (yes) or radians (no).

endheader
time	pelvis_tilt	pelvis_list	pelvis_rotation	pelvis_tx	pelvis_ty	pelvis_tz	hip_flexion_r	hip_adduction_r	hip_rotation_r	knee_angle_r	knee_angle_r_beta	ankle_angle_r	subtalar_angle_r	mtp_angle_r	hip_flexion_l	hip_adduction_l	hip_rotation_l	knee_angle_l	knee_angle_l_beta	ankle_angle_l	subtalar_angle_l	mtp_angle_l	L5_S1_Flex_Ext	L5_S1_Lat_Bending	L5_S1_axial_rotation	L4_L5_Flex_Ext	L4_L5_Lat_Bending	L4_L5_axial_rotation	L3_L4_Flex_Ext	L3_L4_Lat_Bending	L3_L4_axial_rotation	L2_L3_Flex_Ext	L2_L3_Lat_Bending	L2_L3_axial_rotation	L1_L2_Flex_Ext	L1_L2_Lat_Bending	L1_L2_axial_rotation	L1_T12_Flex_Ext	L1_T12_Lat_Bending	L1_T12_axial_rotation	Abs_r3	Abs_r2	Abs_r1	Abs_t1	Abs_t2	neck_flexion	neck_bending	neck_rotation	arm_flex_r	arm_add_r	arm_rot_r	elbow_flex_r	pro_sup_r	wrist_flex_r	wrist_dev_r	arm_flex_l	arm_add_l	arm_rot_l	elbow_flex_l	pro_sup_l	wrist_flex_l	wrist_dev_l
      2.80000000	      8.40442699	     -2.91500064	     82.36775179	      0.24129744	      0.88226623	      0.51244338	      8.23958214	      5.62050989	      3.86283225	     17.16348434	      0.29955931	     28.91043415	     16.50505301	      0.00000000	      2.16694414	    -10.13257209	      8.54045590	     10.24335600	      0.17878029	     31.20045801	     -9.87391215	      0.00000000	      0.03870898	      1.31684599	     -0.81184294	      0.07188645	      1.75140517	     -0.86258312	      0.06359498	      3.20177935	     -0.86258312	      0.04424049	      3.20177935	     -0.71036257	      0.03594516	      2.68531235	     -0.65962239	      0.02211831	      2.03979444	     -0.60888221	      0.27649438	     14.89642523	     -4.51522688	      0.00000000	      0.00000000	     13.44465284	      2.37495165	     -4.77451300	      8.96950935	    -13.74824042	     58.49850589	     56.77992094	     89.04855566	      3.10924707	     12.32760319	     -4.74365663	    -13.09973232	     19.15003390	     76.41000573	     87.81046213	     -0.24367846	     26.15827404
      2.81666667	      8.64728709	     -2.70157208	     82.59344139	      0.24085336	      0.88253562	      0.51035195	      7.60544231	      5.86638152	      4.28261724	     16.63306467	      0.29030174	     29.08973901	     16.05189122	      0.00000000	      1.42020639	    -10.46529631	      7.67602441	      9.46971086	      0.16527763	     31.84261511	     -7.98963968	      0.00000000	      0.03483192	      1.33376895	     -0.68155670	      0.06468635	      1.77391271	     -0.72415399	      0.05722536	      3.24292584	     -0.72415399	      0.03980940	      3.24292584	     -0.59636211	      0.03234492	      2.71982165	     -0.55376482	      0.01990296	      2.06600811	     -0.51116752	      0.24880090	     15.08786117	     -3.79061389	      0.00000000	      0.00000000	     13.45219482	      1.38923214	     -5.02499712	      7.85059213	    -13.66675275	     56.74711396	     56.99874484	     88.98231724	      4.32447751	     13.39939523	     -2.88276456	    -11.81103871	     20.27364882	     75.38413155	     87.32095999	      1.54565504	     29.41087361
      2.83333333	      8.70216263	     -2.44331233	     82.72918101	      0.24059428	      0.88298906	      0.50868866	      7.03521949	      5.90434214	      4.58811645	     16.21466943	      0.28299937	     29.20333474	     15.80242481	      0.00000000	      0.59406677	    -10.56325632	      6.97637637	      8.54409228	      0.14912254	     32.22965682	     -6.52289806	      0.00000000	      0.02666023	      1.32776571	     -0.57733724	      0.04951071	      1.76592839	     -0.61342081	      0.04380009	      3.22832954	     -0.61342081	      0.03046997	      3.22832954	     -0.50517008	      0.02475669	      2.70757983	     -0.46908651	      0.01523365	      2.05670908	     -0.43300293	      0.19043134	     15.01995124	     -3.21097651	      0.00000000	      0.00000000	     13.50078218	      0.48856756	     -4.98029378	      7.49570735	    -13.63847244	     56.35114019	     57.04695508	     88.92448826	      3.83116534	     13.01432021	     -1.29035805	    -10.68038357	     21.67779433	     74.16741619	     86.47191046	      2.78464695	     31.09137454
      2.85000000	      8.53674508	     -2.51086525	     82.81753178	      0.24049170	      0.88286310	      0.50785649	      7.04242540	      5.73735209	      4.69088201	     16.09781842	      0.28095993	     29.36863467	     15.76159523	      0.00000000	      0.45846207	    -10.38747829	      6.97645651	      8.11189653	      0.14157930	     32.66824322	     -6.40689099	      0.00000000	      0.05662693	      1.29199108	     -0.57116006	      0.10516187	      1.71834813	     -0.60685756	      0.09303238	      3.14134710	     -0.60685756	      0.06471892	      3.14134710	     -0.49976505	      0.05258377	      2.63462820	     -0.46406755	      0.03235663	      2.00129418	     -0.42837004	      0.40448048	     14.61526145	     -3.17662089	      0.00000000	      0.00000000	     13.82712704	      0.19428484	     -4.76540578	      7.67006518	    -13.42378920	     56.45444281	     57.01728744	     88.90563793	      3.78478665	     12.92782750	     -0.56317577	     -9.56844925	     22.29451779	     73.38876076	     86.37843583	      2.95784971	     31.47063704
      2.86666667	      8.23240512	     -2.18284832	     81.81674935	      0.24152210	      0.88353131	      0.50755783	      6.60676333	      5.53145294	      6.06180384	     15.88301062	      0.27721083	     29.31752272	     15.44715015	      0.00000000	     -0.76296491	    -10.09952655	      4.90305392	      6.84423574	      0.11945445	     32.75330897	     -4.68705904	      0.00000000	      0.02262824	      1.23804306	     -0.17870509	      0.04202291	      1.64659727	     -0.18987416	      0.03717594	      3.01017790	     -0.18987416	      0.02586182	      3.01017790	     -0.15636695	      0.02101259	      2.52461741	     -0.14519789	      0.01292978	      1.91772870	     -0.13402882	      0.16163127	     14.00499071	     -0.99390410	      0.00000000	      0.00000000	     14.28849909	     -0.44988137	     -5.25882289	      7.35565395	    -13.68195379	     55.61315838	     57.33840127	     88.85142405	      2.48025205	     11.37351669	      1.65848954	     -8.95479347	     24.81326336	     71.67134403	     85.22453096	      6.87620415	     32.46315371
      2.88333333	      7.83991243	     -2.10713721	     81.00325166	      0.24247941	      0.88365437	      0.50816460	      6.61475196	      5.25390604	      7.21125911	     15.85108202	      0.27665357	     29.31520868	     15.15571332	      0.00000000	     -1.27058417	     -9.71105816	      2.99544389	      6.14814537	      0.10730538	     33.03346886	     -3.51244323	      0.00000000	      0.01315476	      1.17061000	      0.08929449	      0.02442970	      1.55691130	      0.09487539	      0.02161195	      2.84622116	      0.09487539	      0.01503457	      2.84622116	      0.07813268	      0.01221551	      2.38710792	      0.07255177	      0.00751663	      1.81327489	      0.06697087	      0.09396311	     13.24217447	      0.49662915	      0.00000000	      0.00000000	     14.83164828	     -0.51550526	     -5.27794711	      7.42974677	    -13.72510054	     55.15223177	     57.38141753	     88.73665995	      2.37247954	     10.48308467	      3.24027689	     -8.34041857	     26.24954445	     70.67712663	     85.66979079	      9.59747320	     32.67985140
